<svg width="150" height="150" viewBox="0 0 150 150" fill="none" xmlns="http://www.w3.org/2000/svg">
<rect width="150" height="150" rx="35" fill="white"/>
<path d="M76.8333 109.333C104.908 109.333 127.667 105.005 127.667 99.6667C127.667 96.1893 119.282 93.1409 104.792 91.4377L84.4583 41.6667L53.9583 32L61.5833 46.5L48.875 91.4377C34.3844 93.1409 26 96.1893 26 99.6667C26 105.005 48.7588 109.333 76.8333 109.333Z" stroke="black" stroke-width="7" stroke-linecap="round" stroke-linejoin="round"/>
<mask id="path-3-inside-1_1801_40" fill="white">
<path d="M61 46L55 33L80 40L85.5 46L101.5 91.5L123.5 95.5V101.5L103.5 107L80 109.5H53L26 101.5V98L47 91.5L61 46Z"/>
</mask>
<path d="M55 33L81.963 -63.2964L-126.525 -121.673L-35.7959 74.9058L55 33ZM61 46L156.578 75.4086L167.831 38.8365L151.796 4.09418L61 46ZM47 91.5L76.5684 187.029L127.04 171.406L142.578 120.909L47 91.5ZM26 98L-3.56837 2.47141L-74 24.2717L-74 98H26ZM26 101.5H-74V176.168L-2.40883 197.38L26 101.5ZM53 109.5L24.5912 205.38L38.4968 209.5H53V109.5ZM80 109.5V209.5H85.3042L90.5786 208.939L80 109.5ZM103.5 107L114.079 206.439L122.17 205.578L130.016 203.421L103.5 107ZM123.5 101.5L150.016 197.921L223.5 177.712V101.5H123.5ZM123.5 95.5H223.5V12.0424L141.389 -2.88699L123.5 95.5ZM101.5 91.5L7.16275 124.674L26.4396 179.492L83.6115 189.887L101.5 91.5ZM85.5 46L179.837 12.8265L173.047 -6.48356L159.215 -21.5725L85.5 46ZM80 40L153.715 -27.5725L134.437 -48.6038L106.963 -56.2964L80 40ZM-35.7959 74.9058L-29.7959 87.9058L151.796 4.09418L145.796 -8.90582L-35.7959 74.9058ZM-34.5779 16.5914L-48.5779 62.0914L142.578 120.909L156.578 75.4086L-34.5779 16.5914ZM17.4316 -4.02859L-3.56837 2.47141L55.5684 193.529L76.5684 187.029L17.4316 -4.02859ZM-74 98V101.5H126V98H-74ZM-2.40883 197.38L24.5912 205.38L81.4088 13.6202L54.4088 5.62019L-2.40883 197.38ZM53 209.5H80V9.5H53V209.5ZM90.5786 208.939L114.079 206.439L92.9214 7.56111L69.4214 10.0611L90.5786 208.939ZM130.016 203.421L150.016 197.921L96.9844 5.07946L76.9844 10.5795L130.016 203.421ZM223.5 101.5V95.5H23.5V101.5H223.5ZM141.389 -2.88699L119.389 -6.88699L83.6115 189.887L105.611 193.887L141.389 -2.88699ZM195.837 58.3265L179.837 12.8265L-8.83725 79.1735L7.16275 124.674L195.837 58.3265ZM159.215 -21.5725L153.715 -27.5725L6.28459 107.572L11.7846 113.572L159.215 -21.5725ZM106.963 -56.2964L81.963 -63.2964L28.037 129.296L53.037 136.296L106.963 -56.2964Z" fill="black" mask="url(#path-3-inside-1_1801_40)"/>
</svg>
